<?xml version="1.0" encoding="UTF-8" standalone="no"?>
<!DOCTYPE svg  PUBLIC '-//W3C//DTD SVG 1.1//EN'  'http://www.w3.org/Graphics/SVG/1.1/DTD/svg11.dtd'>
<svg xmlns="http://www.w3.org/2000/svg">
<defs>
<font id="Geometria-Light" horiz-adv-x="1732">
<font-face underline-position="-102" font-weight="300" descent="-410" panose-1="2 11 4 3 2 2 4 2 2 4" units-per-em="2048" unicode-range="U+0020-2122" bbox="-113 -422 2238 1890" x-height="979" underline-thickness="102" font-family="Geometria" ascent="1638" cap-height="1434"/>
<missing-glyph horiz-adv-x="2048"/>
<glyph glyph-name=".notdef" horiz-adv-x="2048"/>
<glyph glyph-name="glyph1" horiz-adv-x="0"/>
<glyph glyph-name="glyph2" horiz-adv-x="2048"/>
<glyph glyph-name="space" horiz-adv-x="546" unicode=" "/>
<glyph glyph-name="exclam" horiz-adv-x="546" unicode="!" d="M213 1434h121l-15 -1006h-92zM193 76q0 34 23.5 58t57.5 24t58 -24t24 -58t-24 -58t-58 -24t-57.5 24t-23.5 58z"/>
<glyph glyph-name="quotedbl" horiz-adv-x="706" unicode='&quot;' d="M492 944v490h94v-490h-94zM121 944v490h96v-490h-96z"/>
<glyph glyph-name="numbersign" horiz-adv-x="1462" unicode="#" d="M481 494h430l70 444h-428zM70 403l16 91h297l72 444h-301l16 90h297l68 406h94l-64 -406h430l64 406h96l-63 -406h301l-15 -90h-301l-69 -444h301l-15 -91h-303l-63 -403h-97l66 403h-430l-66 -403h-94l64 403h-301z"/>
<glyph glyph-name="dollar" horiz-adv-x="1277" unicode="$" d="M98 129v117q80 -70 220 -122t296 -52q185 0 303.5 83t118.5 222q0 60 -25 108t-52 76t-97 58.5t-106.5 42t-134.5 39.5q-8 3 -13 4q-59 17 -96.5 29t-87 29.5t-81 34.5t-67.5 39.5t-57.5 48.5t-41 58t-28 72t-8.5 86q0 144 111.5 243t316.5 111v211h105v-211 q215 -12 381 -119v-108q-192 131 -432 131q-188 0 -283.5 -75t-95.5 -185q0 -53 24 -96.5t49 -69t95 -55t103.5 -40t134.5 -39.5q10 -3 16 -5q60 -17 99 -29.5t94 -34.5t91 -43t75.5 -53t62.5 -68t38 -84.5t15 -105.5q0 -119 -65.5 -209t-169 -136.5t-232.5 -54.5v-210h-105 v210q-145 7 -270.5 50t-200.5 102z"/>
<glyph glyph-name="percent" horiz-adv-x="1685" unicode="%" d="M991 317q0 -110 69.5 -185t178.5 -75q107 0 176.5 75t69.5 185t-69.5 185.5t-176.5 75.5q-109 0 -178.5 -75.5t-69.5 -185.5zM901 317q0 143 96 242.5t242 99.5q144 0 240 -99.5t96 -242.5t-96 -242.5t-240 -99.5q-146 0 -242 99.5t-96 242.5zM375 0l833 1434h105 l-836 -1434h-102zM201 1116q0 -110 69 -185t176 -75q108 0 178 75t70 185t-70 185t-178 75q-107 0 -176 -75t-69 -185zM111 1116q0 143 94.5 242.5t240.5 99.5t241 -99.5t95 -242.5t-95 -242.5t-241 -99.5t-240.5 99.5t-94.5 242.5z"/>
<glyph glyph-name="ampersand" horiz-adv-x="1441" unicode="&amp;" d="M207 430q0 -164 118.5 -263t297.5 -99q232 0 393 161l-561 541q-100 -31 -174 -120.5t-74 -219.5zM104 430q0 84 28.5 157.5t74 123t91 82t91.5 51.5q-110 126 -110 274q0 152 110.5 246t276.5 94q204 0 350 -115v-110q-148 133 -336 133q-138 0 -218.5 -67.5 t-80.5 -182.5q0 -83 41.5 -151t124.5 -150l530 -512q131 188 140 459h100q-13 -311 -170 -526l246 -236h-140l-168 162q-190 -187 -464 -187q-98 0 -189 29.5t-165 84.5t-118.5 143.5t-44.5 197.5z"/>
<glyph glyph-name="quotesingle" horiz-adv-x="337" unicode="&apos;" d="M121 944v490h96v-490h-96z"/>
<glyph glyph-name="parenleft" horiz-adv-x="722" unicode="(" d="M207 512q0 544 307 934h111q-67 -88 -119 -175.5t-101 -203.5t-75.5 -257.5t-26.5 -297.5q0 -523 322 -934h-111q-307 382 -307 934z"/>
<glyph glyph-name="parenright" horiz-adv-x="722" unicode=")" d="M98 -422q322 411 322 934q0 156 -26.5 297.5t-75.5 257.5t-101 203.5t-119 175.5h111q307 -394 307 -934q0 -547 -307 -934h-111z"/>
<glyph glyph-name="asterisk" horiz-adv-x="872" unicode="*" d="M102 926l258 147l-258 144l43 75l254 -155l-4 297h84l-4 -297l254 155l41 -75l-258 -144l258 -147l-41 -74l-254 156l4 -297h-84l4 297l-254 -156z"/>
<glyph glyph-name="plus" horiz-adv-x="1247" unicode="+" d="M143 616v93h435v434h92v-434h434v-93h-434v-432h-92v432h-435z"/>
<glyph glyph-name="comma" horiz-adv-x="458" unicode="," d="M45 -311l156 493h123l-193 -493h-86z"/>
<glyph glyph-name="hyphen" horiz-adv-x="976" unicode="-" d="M211 506v92h555v-92h-555z"/>
<glyph glyph-name="period" horiz-adv-x="458" unicode="." d="M147 76q0 34 24 58t58 24t58 -24t24 -58t-24 -58t-58 -24t-58 24t-24 58z"/>
<glyph glyph-name="slash" horiz-adv-x="1026" unicode="/" d="M29 -287l862 1909h104l-862 -1909h-104z"/>
<glyph glyph-name="zero" horiz-adv-x="1445" unicode="0" d="M248 717q0 -182 61 -329.5t170 -231.5t244 -84q136 0 245 84t169.5 231.5t60.5 329.5t-60.5 329t-169.5 230.5t-245 83.5q-135 0 -244 -83.5t-170 -230.5t-61 -329zM145 717q0 207 72 375.5t205 267t301 98.5t300.5 -98.5t204.5 -267t72 -375.5t-72 -376t-204.5 -267.5 t-300.5 -98.5t-301 98.5t-205 267.5t-72 376z"/>
<glyph glyph-name="one" horiz-adv-x="745" unicode="1" d="M76 1122v103l338 209h94v-1434h-102v1323z"/>
<glyph glyph-name="two" horiz-adv-x="1171" unicode="2" d="M92 0l2 80l502 485q65 63 105 104.5t81.5 92.5t63 93t35.5 92t14 104q0 138 -96 223.5t-256 85.5q-131 0 -231.5 -53.5t-188.5 -147.5v125q174 174 430 174q195 0 320.5 -110.5t125.5 -288.5q0 -75 -18.5 -140t-61.5 -131.5t-96.5 -127t-140.5 -144.5l-434 -422h809v-94 h-965z"/>
<glyph glyph-name="three" horiz-adv-x="1161" unicode="3" d="M84 80v110q74 -55 178.5 -86.5t224.5 -31.5q114 0 212.5 42t163.5 129t65 203q0 160 -116.5 259.5t-309.5 99.5q-66 0 -146 -17v72l482 479h-688v95h829v-76l-467 -467q78 -1 152.5 -19t140.5 -54.5t116 -88.5t79.5 -125t29.5 -158q0 -139 -71 -247.5t-192.5 -166 t-270.5 -57.5q-245 0 -412 105z"/>
<glyph glyph-name="four" horiz-adv-x="1286" unicode="4" d="M205 508h663v782zM80 414v84l792 936h99v-926h241v-94h-241v-414h-103v414h-788z"/>
<glyph glyph-name="five" horiz-adv-x="1222" unicode="5" d="M133 70v106q170 -104 391 -104q198 0 327.5 106t129.5 266q0 154 -120.5 254.5t-319.5 100.5q-186 0 -344 -58l94 693h692v-95h-612l-66 -475q97 31 258 31q222 0 371 -128t149 -323q0 -204 -159 -336.5t-398 -132.5q-226 0 -393 95z"/>
<glyph glyph-name="six" horiz-adv-x="1306" unicode="6" d="M262 500q22 -203 128 -315.5t294 -112.5q159 0 269 108.5t110 272.5q0 160 -111 259t-274 99q-140 0 -256 -89.5t-160 -221.5zM152 645q0 230 73.5 414t214.5 291.5t326 107.5q169 0 299 -88v-100q-137 90 -291 90q-128 0 -229.5 -58t-164 -157.5t-94.5 -225t-32 -268.5 q54 110 172.5 183t273.5 73q194 0 329.5 -127.5t135.5 -324.5q0 -209 -137.5 -344.5t-341.5 -135.5q-246 0 -390 176t-144 494z"/>
<glyph glyph-name="seven" horiz-adv-x="1116" unicode="7" d="M98 1339v95h922v-76l-690 -1358h-109l678 1339h-801z"/>
<glyph glyph-name="eight" horiz-adv-x="1323" unicode="8" d="M299 1083q0 -121 104 -200.5t261 -79.5q153 0 255.5 79.5t102.5 200.5q0 124 -101.5 200.5t-256.5 76.5q-159 0 -262 -76.5t-103 -200.5zM227 391q0 -137 124.5 -228t307.5 -91q184 0 309.5 91t125.5 228q0 139 -124.5 227.5t-310.5 88.5q-184 0 -308 -88.5t-124 -227.5z M123 385q0 143 89 240t243 135q-118 39 -188 125.5t-70 204.5q0 164 131.5 266t333.5 102q199 0 330.5 -102t131.5 -266q0 -119 -69.5 -205t-188.5 -125q154 -38 243 -135t89 -240q0 -184 -153 -297t-383 -113q-151 0 -273 49.5t-194 144t-72 216.5z"/>
<glyph glyph-name="nine" horiz-adv-x="1306" unicode="9" d="M246 981q0 -160 111 -259t274 -99q140 0 256 89.5t160 221.5q-22 203 -128 314.5t-294 111.5q-160 0 -269.5 -107.5t-109.5 -271.5zM143 979q0 138 63.5 248t173 170.5t243.5 60.5q246 0 390 -176t144 -494q0 -230 -73.5 -414t-214.5 -291.5t-326 -107.5q-169 0 -299 88 v101q136 -92 291 -92q103 0 189.5 38t146.5 104.5t102 156.5t61.5 193.5t20.5 217.5q-54 -110 -173.5 -183t-273.5 -73q-194 0 -329.5 128t-135.5 325z"/>
<glyph glyph-name="colon" horiz-adv-x="458" unicode=":" d="M147 868q0 34 24 58t58 24t58 -24t24 -58t-24 -58t-58 -24t-58 24t-24 58zM147 76q0 34 24 58t58 24t58 -24t24 -58t-24 -58t-58 -24t-58 24t-24 58z"/>
<glyph glyph-name="semicolon" horiz-adv-x="460" unicode=";" d="M156 868q0 34 24 58t58 24t57.5 -24t23.5 -58t-23.5 -58t-57.5 -24t-58 24t-24 58zM45 -311l156 493h123l-193 -493h-86z"/>
<glyph glyph-name="less" horiz-adv-x="1247" unicode="&lt;" d="M143 610v95l961 415v-98l-846 -367l846 -360v-102z"/>
<glyph glyph-name="equal" horiz-adv-x="1247" unicode="=" d="M143 850v90h961v-90h-961zM143 383v90h961v-90h-961z"/>
<glyph glyph-name="greater" horiz-adv-x="1247" unicode="&gt;" d="M143 193v102l846 360l-846 367v98l961 -415v-95z"/>
<glyph glyph-name="question" horiz-adv-x="958" unicode="?" d="M346 76q0 34 24 58t58 24t58 -24t24 -58t-24 -58t-58 -24t-58 24t-24 58zM63 1233v100q66 52 160.5 83.5t200.5 31.5q177 0 302.5 -106t125.5 -273q0 -76 -31.5 -143t-86 -116t-120.5 -85t-143 -59v-238h-96v293q67 15 131.5 45t120 72t89.5 101.5t34 125.5 q0 128 -95 209.5t-241 81.5q-187 0 -351 -123z"/>
<glyph glyph-name="at" horiz-adv-x="1980" unicode="@" d="M657 561q0 -139 93.5 -235.5t230.5 -96.5q90 0 171.5 50.5t125.5 126.5v311q-44 76 -125.5 126t-171.5 50q-138 0 -231 -96t-93 -236zM111 563q0 187 70 353.5t188.5 285t281.5 187.5t342 69q185 0 348.5 -66t279 -178.5t182.5 -268.5t67 -329q0 -208 -92 -343.5 t-248 -135.5q-97 0 -155.5 49t-82.5 119q-44 -65 -134 -117.5t-200 -52.5q-119 0 -213 60t-143 156.5t-49 209.5t49.5 209.5t143.5 156.5t212 60q106 0 188.5 -47.5t131.5 -110.5v127h98v-548q0 -107 47.5 -162.5t126.5 -55.5q118 0 193.5 120t75.5 308q0 157 -59 300 t-164 252t-262 174t-341 65q-177 0 -332.5 -67.5t-264 -181.5t-171.5 -269.5t-63 -327.5q0 -232 105.5 -425t297 -307t428.5 -114q225 0 418 99v-52q-187 -96 -418 -96q-180 0 -342 68t-281 186t-189 285t-70 356z"/>
<glyph glyph-name="A" horiz-adv-x="1523" unicode="A" d="M399 508h727l-362 801zM68 0l649 1442h94l647 -1442h-106l-189 418h-801l-188 -418h-106z"/>
<glyph glyph-name="B" horiz-adv-x="1474" unicode="B" d="M315 809h490q151 0 233 68.5t82 195.5t-82 196.5t-233 69.5h-490v-530zM315 94h555q177 0 273 81.5t96 232.5q0 149 -96 230t-273 81h-555v-625zM213 0v1434h604q191 0 297.5 -93t106.5 -254q0 -115 -51.5 -193t-145.5 -114q153 -23 239.5 -124t86.5 -259 q0 -181 -122.5 -289t-340.5 -108h-674z"/>
<glyph glyph-name="C" horiz-adv-x="1419" unicode="C" d="M152 717q0 212 95 382t260 264.5t367 94.5q238 0 410 -112v-109q-191 123 -407 123q-171 0 -313 -82t-225 -230t-83 -331t83 -331.5t225.5 -231t314.5 -82.5q250 0 438 149v-112q-181 -134 -443 -134q-150 0 -283.5 55.5t-230 153t-152.5 236t-56 297.5z"/>
<glyph glyph-name="D" horiz-adv-x="1587" unicode="D" d="M315 94h330q317 0 500.5 170.5t183.5 452.5t-183.5 452t-500.5 170h-330v-1245zM213 0v1434h449q170 0 314 -52.5t244.5 -146t157 -227t56.5 -291.5t-56.5 -291.5t-157 -227t-244.5 -146t-314 -52.5h-449z"/>
<glyph glyph-name="E" horiz-adv-x="1304" unicode="E" d="M213 0v1434h963v-95h-861v-520h711v-96h-711v-629h893v-94h-995z"/>
<glyph glyph-name="F" horiz-adv-x="1265" unicode="F" d="M213 0v1434h952v-95h-850v-538h703v-96h-703v-705h-102z"/>
<glyph glyph-name="G" horiz-adv-x="1601" unicode="G" d="M152 717q0 212 95 382t259.5 264.5t365.5 94.5q276 0 467 -147v-109q-202 158 -458 158q-131 0 -246 -48t-198.5 -132t-132 -204.5t-48.5 -260.5q0 -138 48.5 -258.5t131 -204.5t196 -132t240.5 -48q137 0 253 42.5t194 125.5v581h102v-620q-96 -104 -235.5 -165 t-313.5 -61q-149 0 -282 55.5t-229.5 153t-152.5 236t-56 297.5z"/>
<glyph glyph-name="H" horiz-adv-x="1556" unicode="H" d="M213 0v1434h102v-615h924v615h102v-1434h-102v723h-924v-723h-102z"/>
<glyph glyph-name="I" horiz-adv-x="555" unicode="I" d="M227 0v1434h103v-1434h-103z"/>
<glyph glyph-name="J" horiz-adv-x="1032" unicode="J" d="M76 72v110q126 -110 307 -110q352 0 352 370v992h103v-1008q0 -225 -115 -338t-324 -113q-191 0 -323 97z"/>
<glyph glyph-name="K" horiz-adv-x="1312" unicode="K" d="M213 0v1434h102v-631l721 631h142l-748 -658l862 -776h-153l-824 743v-743h-102z"/>
<glyph glyph-name="L" horiz-adv-x="1214" unicode="L" d="M213 0v1434h102v-1340h830v-94h-932z"/>
<glyph glyph-name="M" horiz-adv-x="1734" unicode="M" d="M213 0v1434h104l551 -725l551 725h101v-1434h-103v1276l-516 -680h-65l-521 680v-1276h-102z"/>
<glyph glyph-name="N" horiz-adv-x="1587" unicode="N" d="M213 0v1434h90l967 -1256v1256h102v-1434h-88l-969 1257v-1257h-102z"/>
<glyph glyph-name="O" d="M256 717q0 -137 48 -257t129.5 -205t194 -134t238.5 -49t238.5 49t194 134t129 205t47.5 257t-47.5 257t-129 204.5t-194 133t-238.5 48.5q-168 0 -307.5 -82.5t-221 -230.5t-81.5 -330zM152 717q0 209 93 379t256.5 266t364.5 96q149 0 281 -56.5t227 -154.5t150 -236 t55 -294q0 -157 -55 -295t-150 -236t-227 -154.5t-281 -56.5q-201 0 -364.5 96t-256.5 266t-93 380z" unicode="O"/>
<glyph glyph-name="P" horiz-adv-x="1361" unicode="P" d="M315 752h486q169 0 260.5 77t91.5 218q0 140 -91.5 216t-260.5 76h-486v-587zM213 0v1434h598q211 0 327.5 -105.5t116.5 -281.5t-116.5 -283t-327.5 -107h-496v-657h-102z"/>
<glyph glyph-name="Q" d="M256 717q0 -137 48 -257t129.5 -205t194 -134t238.5 -49t238.5 49t194 134t129 205t47.5 257t-47.5 257t-129 204.5t-194 133t-238.5 48.5q-168 0 -307.5 -82.5t-221 -230.5t-81.5 -330zM152 717q0 209 93 379t256.5 266t364.5 96q149 0 281 -56.5t227 -154.5t150 -236 t55 -294q0 -258 -139 -451t-363 -260q137 -149 287 -149q103 0 170 49v-105q-77 -41 -176 -41q-107 0 -200 57.5t-197 166.5q-47 -9 -95 -9q-201 0 -364.5 96t-256.5 266t-93 380z" unicode="Q"/>
<glyph glyph-name="R" horiz-adv-x="1507" unicode="R" d="M315 764h527q164 0 254 75t90 214q0 136 -90.5 211t-253.5 75h-527v-575zM213 0v1434h637q207 0 322.5 -103.5t115.5 -275.5q0 -155 -92.5 -256t-261.5 -121l469 -678h-119l-467 670h-502v-670h-102z"/>
<glyph glyph-name="S" horiz-adv-x="1277" unicode="S" d="M98 129v117q80 -70 220 -122t296 -52q185 0 303.5 83t118.5 222q0 60 -25 108t-52 76t-97 58.5t-106.5 42t-134.5 39.5q-8 3 -13 4q-59 17 -96.5 29t-87 29.5t-81 34.5t-67.5 39.5t-57.5 48.5t-41 58t-28 72t-8.5 86q0 153 124.5 254.5t352.5 101.5q249 0 437 -121v-108 q-192 131 -432 131q-188 0 -283.5 -75t-95.5 -185q0 -53 24 -96.5t49 -69t95 -55t103.5 -40t134.5 -39.5q10 -3 16 -5q60 -17 99 -29.5t94 -34.5t91 -43t75.5 -53t62.5 -68t38 -84.5t15 -105.5q0 -127 -73.5 -220t-189 -137.5t-255.5 -44.5q-160 0 -301.5 45t-223.5 109z "/>
<glyph glyph-name="T" horiz-adv-x="1271" unicode="T" d="M74 1339v95h1126v-95h-512v-1339h-102v1339h-512z"/>
<glyph glyph-name="U" horiz-adv-x="1529" unicode="U" d="M190 612v822h103v-822q0 -256 126.5 -398t346.5 -142t345.5 141.5t125.5 398.5v822h102v-822q0 -153 -42.5 -274.5t-119.5 -200.5t-181.5 -120.5t-229.5 -41.5q-259 0 -417.5 166.5t-158.5 470.5z"/>
<glyph glyph-name="V" horiz-adv-x="1533" unicode="V" d="M78 1434h112l578 -1299l575 1299h113l-643 -1442h-94z"/>
<glyph glyph-name="W" horiz-adv-x="2136" unicode="W" d="M90 1434h115l434 -1272l385 1276h86l389 -1276l432 1272h113l-498 -1442h-92l-385 1261l-391 -1261h-88z"/>
<glyph glyph-name="X" horiz-adv-x="1431" unicode="X" d="M76 0l577 778l-485 656h123l428 -572l426 572h123l-490 -654l584 -780h-125l-520 696l-522 -696h-119z"/>
<glyph glyph-name="Y" horiz-adv-x="1329" unicode="Y" d="M53 1434h123l488 -674l491 674h117l-559 -768v-666h-103v664z"/>
<glyph glyph-name="Z" horiz-adv-x="1308" unicode="Z" d="M109 0v74l923 1265h-868v95h1003v-74l-913 -1266h946v-94h-1091z"/>
<glyph glyph-name="bracketleft" horiz-adv-x="763" unicode="[" d="M203 -422v1868h479v-88h-383v-1692h383v-88h-479z"/>
<glyph glyph-name="backslash" horiz-adv-x="1024" unicode="\" d="M33 1622h106l862 -1909h-106z"/>
<glyph glyph-name="bracketright" horiz-adv-x="763" unicode="]" d="M82 -334h381v1692h-381v88h477v-1868h-477v88z"/>
<glyph glyph-name="asciicircum" horiz-adv-x="1032" unicode="^" d="M121 715l346 737h96l346 -737h-96l-297 639l-293 -639h-102z"/>
<glyph glyph-name="underscore" horiz-adv-x="1249" unicode="_" d="M16 -168h1217v-78h-1217v78z"/>
<glyph glyph-name="grave" horiz-adv-x="1069" unicode="`" d="M356 1448h138l196 -266h-106z"/>
<glyph glyph-name="a" horiz-adv-x="1208" unicode="a" d="M203 299q0 -60 25.5 -106t68.5 -72.5t95.5 -39.5t111.5 -13q119 0 219 56t160 134v160q-65 44 -158 77t-195 33q-154 0 -240.5 -62t-86.5 -167zM98 297q0 144 116.5 231.5t289.5 87.5q206 0 379 -104v125q0 140 -90.5 207t-253.5 67q-95 0 -182 -31t-148 -73v100 q149 97 348 97q191 0 308.5 -89.5t117.5 -269.5v-430q0 -64 28 -100.5t76 -36.5q34 0 58 12v-82q-26 -16 -82 -16q-67 0 -115.5 41.5t-54.5 126.5q-166 -185 -418 -185q-98 0 -182 35t-139.5 110t-55.5 177z"/>
<glyph glyph-name="b" horiz-adv-x="1292" unicode="b" d="M283 307q48 -105 153 -172t228 -67q178 0 296.5 120.5t118.5 298.5q0 181 -118.5 302.5t-296.5 121.5q-122 0 -226 -68t-155 -173v-363zM182 0v1434h101v-627q65 90 167.5 143.5t233.5 53.5q146 0 261.5 -73t176 -190t60.5 -254q0 -101 -36 -194t-99.5 -163.5 t-158 -112.5t-204.5 -42q-131 0 -233.5 53t-167.5 142v-170h-101z"/>
<glyph glyph-name="c" horiz-adv-x="1073" unicode="c" d="M111 489q0 141 65 258.5t184.5 187t268.5 69.5q166 0 295 -76v-97q-138 80 -283 80q-183 0 -305.5 -121.5t-122.5 -302.5q0 -180 122.5 -299.5t305.5 -119.5q170 0 301 92v-99q-133 -86 -315 -86q-148 0 -267 69.5t-184 186.5t-65 258z"/>
<glyph glyph-name="d" horiz-adv-x="1294" unicode="d" d="M213 487q0 -178 119 -298.5t297 -120.5q123 0 227 66.5t154 172.5v363q-51 105 -155 173t-226 68q-178 0 -297 -122t-119 -302zM111 487q0 137 60.5 254t175.5 190t261 73q131 0 234 -53.5t168 -143.5v627h100v-1434h-100v170q-65 -89 -168 -142t-234 -53q-146 0 -261 72 t-175.5 188t-60.5 252z"/>
<glyph glyph-name="e" horiz-adv-x="1163" unicode="e" d="M213 559h737q0 43 -11.5 89t-38.5 94t-66.5 85t-101 60.5t-136.5 23.5q-86 0 -158.5 -31t-119 -82t-74 -113t-31.5 -126zM111 487q0 222 136.5 369.5t350.5 147.5q82 0 152 -23t118 -62.5t84.5 -89.5t57.5 -107t31 -110.5t10 -105.5v-33h-840q6 -181 130 -293t318 -112 q182 0 316 92v-97q-52 -39 -140 -63.5t-190 -24.5q-229 0 -381.5 144t-152.5 368z"/>
<glyph glyph-name="f" horiz-adv-x="770" unicode="f" d="M57 889v90h201v190q0 130 67.5 204.5t194.5 74.5q115 0 193 -41v-94q-80 43 -172 43q-89 0 -136 -54.5t-47 -154.5v-168h355v-90h-355v-889h-100v889h-201z"/>
<glyph glyph-name="g" horiz-adv-x="1292" unicode="g" d="M213 496q0 -180 119 -299t299 -119q125 0 228 65t151 170v361q-48 106 -151.5 171.5t-227.5 65.5q-180 0 -299 -119t-119 -296zM111 496q0 135 61 250t176.5 186.5t261.5 71.5q130 0 233 -52t167 -141v168h100v-934q0 -114 -40.5 -203.5t-111.5 -145.5t-164.5 -85 t-203.5 -29q-99 0 -202 26.5t-175 65.5v101q78 -47 176.5 -74t194.5 -27q192 0 309 92.5t117 278.5v131q-64 -88 -166.5 -139t-233.5 -51q-146 0 -261.5 71t-176.5 187t-61 252z"/>
<glyph glyph-name="h" horiz-adv-x="1239" unicode="h" d="M182 0v1434h101v-623q65 81 172 137t241 56q188 0 283.5 -106.5t95.5 -301.5v-596h-100v575q0 82 -20.5 144.5t-51 97.5t-74 56.5t-82 28.5t-81.5 7q-112 0 -221 -67.5t-162 -155.5v-686h-101z"/>
<glyph glyph-name="i" horiz-adv-x="522" unicode="i" d="M211 0v979h100v-979h-100zM178 1323q0 34 24 58t58 24t58 -24t24 -58t-24 -58t-58 -24t-58 24t-24 58z"/>
<glyph glyph-name="j" horiz-adv-x="522" unicode="j" d="M178 1323q0 34 24 58t58 24t58 -24t24 -58t-24 -58t-58 -24t-58 24t-24 58zM-113 -287q66 -39 142 -39q182 0 182 209v1096h100v-1112q0 -79 -21.5 -136.5t-60 -88.5t-83.5 -45.5t-99 -14.5q-99 0 -160 37v94z"/>
<glyph glyph-name="k" horiz-adv-x="1062" unicode="k" d="M182 0v1434h101v-867l508 412h145l-547 -442l621 -537h-150l-577 498v-498h-101z"/>
<glyph glyph-name="l" horiz-adv-x="575" unicode="l" d="M182 205v1229h101v-1207q0 -155 143 -155q54 0 102 28v-96q-52 -29 -133 -29q-40 0 -75 11t-67.5 35.5t-51.5 71.5t-19 112z"/>
<glyph glyph-name="m" horiz-adv-x="1871" unicode="m" d="M182 0v979h101v-160q52 79 148 132t220 53q125 0 205 -54t113 -153q62 89 160.5 148t230.5 59q166 0 257 -102t91 -292v-610h-100v590q0 81 -19.5 141.5t-48 93.5t-68 53t-71 25.5t-66.5 5.5q-104 0 -201 -67t-143 -162q4 -78 4 -102v-578h-100v592q0 317 -270 317 q-100 0 -194.5 -62.5t-147.5 -156.5v-690h-101z"/>
<glyph glyph-name="n" horiz-adv-x="1239" unicode="n" d="M182 0v979h101v-168q65 81 172 137t241 56q188 0 283.5 -106.5t95.5 -301.5v-596h-100v575q0 82 -20.5 144.5t-51 97.5t-74 56.5t-82 28.5t-81.5 7q-112 0 -221 -67.5t-162 -155.5v-686h-101z"/>
<glyph glyph-name="o" horiz-adv-x="1263" unicode="o" d="M213 487q0 -177 120 -298t298 -121t299 121t121 298q0 180 -121 302t-299 122t-298 -122t-120 -302zM111 487q0 102 37.5 195.5t104 165t165 114t213.5 42.5q116 0 215 -42.5t165.5 -114t104 -165t37.5 -195.5q0 -101 -37.5 -194t-104 -163.5t-165.5 -112.5t-215 -42 q-115 0 -213.5 42t-165 112.5t-104 163.5t-37.5 194z"/>
<glyph glyph-name="p" horiz-adv-x="1292" unicode="p" d="M283 309q48 -105 153 -173t228 -68q178 0 296.5 121t118.5 300t-118.5 300.5t-296.5 121.5q-123 0 -228 -67t-153 -172v-363zM182 -410v1389h101v-170q65 89 167.5 142t233.5 53q146 0 261.5 -72.5t176 -189t60.5 -253.5q0 -101 -36 -194t-99.5 -164t-158 -113.5 t-204.5 -42.5q-131 0 -233.5 53.5t-167.5 143.5v-582h-101z"/>
<glyph glyph-name="q" horiz-adv-x="1294" unicode="q" d="M213 489q0 -179 119 -300t297 -121q123 0 228 68t153 173v363q-50 106 -154 172.5t-227 66.5q-178 0 -297 -121.5t-119 -300.5zM111 489q0 137 60.5 253.5t175.5 189t261 72.5q131 0 234 -53t168 -142v170h100v-1389h-100v582q-65 -90 -168 -143.5t-234 -53.5 q-146 0 -261 72.5t-175.5 189t-60.5 252.5z"/>
<glyph glyph-name="r" horiz-adv-x="712" unicode="r" d="M182 0v979h101v-203q54 94 161.5 161t233.5 67v-103q-140 0 -244.5 -77.5t-150.5 -180.5v-643h-101z"/>
<glyph glyph-name="s" horiz-adv-x="1026" unicode="s" d="M96 80v106q64 -44 172.5 -81t231.5 -37q141 0 224 50t83 138q0 34 -17 61.5t-42 46.5t-73 37t-89 29.5t-111 28.5q-63 15 -108 29.5t-93.5 37.5t-78 51t-49 68.5t-19.5 91.5q0 123 98.5 195t280.5 72q95 0 192.5 -25t161.5 -66v-102q-71 44 -163 72t-185 28 q-143 0 -214 -48t-71 -126q0 -29 10.5 -53.5t31.5 -42.5t45 -31.5t60 -25t66.5 -20t72.5 -18.5q4 -1 7 -1.5t6 -1.5q52 -12 81.5 -20t76 -23t73.5 -28.5t59.5 -36t50 -47t30 -59t12.5 -75.5q0 -129 -116 -204t-291 -75q-123 0 -233.5 31.5t-172.5 73.5z"/>
<glyph glyph-name="t" horiz-adv-x="866" unicode="t" d="M57 889v90h248v313h101v-313h360v-90h-360v-602q0 -120 42 -167.5t140 -47.5q82 0 164 45v-97q-27 -19 -81 -32t-110 -13q-130 0 -193 76t-63 209v629h-248z"/>
<glyph glyph-name="u" horiz-adv-x="1243" unicode="u" d="M166 383v596h100v-576q0 -333 309 -333q111 0 219.5 67.5t163.5 155.5v686h101v-979h-101v168q-65 -81 -172 -137t-241 -56q-188 0 -283.5 106.5t-95.5 301.5z"/>
<glyph glyph-name="v" horiz-adv-x="1140" unicode="v" d="M63 979h115l395 -852l392 852h108l-457 -987h-94z"/>
<glyph glyph-name="w" horiz-adv-x="1667" unicode="w" d="M88 979h105l303 -832l295 836h86l297 -836l301 832h102l-358 -987h-86l-304 835l-294 -835h-89z"/>
<glyph glyph-name="x" horiz-adv-x="1110" unicode="x" d="M74 0l428 520l-373 459h123l311 -381l311 381h119l-370 -455l426 -524h-125l-365 446l-366 -446h-119z"/>
<glyph glyph-name="y" horiz-adv-x="1114" unicode="y" d="M53 979h113l389 -840l377 840h110l-493 -1090q-70 -153 -148 -230t-190 -77q-99 0 -143 31v94q56 -33 131 -33q51 0 92 21t78 70t66.5 104.5t70.5 148.5z"/>
<glyph glyph-name="z" horiz-adv-x="1011" unicode="z" d="M78 0v68l676 821h-627v90h772v-72l-674 -817h707v-90h-854z"/>
<glyph glyph-name="braceleft" horiz-adv-x="714" unicode="{" d="M113 471v82q37 4 65 16.5t44.5 36t26.5 45.5t14.5 58.5t5.5 61.5t1 67v342q0 128 70 197t195 69h100v-88h-84q-184 0 -184 -182v-361q0 -124 -26.5 -196.5t-107.5 -106.5q81 -34 107.5 -106.5t26.5 -196.5v-361q0 -182 184 -182h84v-88h-100q-125 0 -195 69t-70 197v340 q0 36 -0.5 57.5t-3.5 54t-9 52.5t-17.5 44.5t-28 38.5t-41.5 25.5t-57 14.5z"/>
<glyph glyph-name="bar" horiz-adv-x="608" unicode="|" d="M256 -227v1783h94v-1783h-94z"/>
<glyph glyph-name="braceright" horiz-adv-x="714" unicode="}" d="M80 -334h84q184 0 184 182v361q0 125 26 197t107 106q-81 34 -107 106t-26 197v361q0 182 -184 182h-84v88h102q124 0 193 -69t69 -197v-342q0 -42 1 -67t5.5 -61.5t15 -59t27 -45.5t44.5 -35.5t65 -16.5v-82q-37 -4 -65 -17t-44.5 -36t-27 -45.5t-15 -59t-5.5 -62 t-1 -67.5v-340q0 -128 -69 -197t-193 -69h-102v88z"/>
<glyph glyph-name="asciitilde" horiz-adv-x="1163" unicode="~" d="M143 442v103q26 35 83 56.5t126 21.5q82 0 229.5 -50.5t229.5 -50.5q132 0 209 86v-102q-26 -35 -84 -55.5t-125 -20.5q-83 0 -230 50t-229 50q-133 0 -209 -88z"/>
<glyph glyph-name="uni00A0" horiz-adv-x="546" unicode=" "/>
<glyph glyph-name="exclamdown" horiz-adv-x="546" unicode="¡" d="M211 -410l16 959h92l17 -959h-125zM190 903q0 34 24 58t58 24t58 -24t24 -58t-24 -58t-58 -24t-58 24t-24 58z"/>
<glyph glyph-name="cent" horiz-adv-x="1073" unicode="¢" d="M111 489q0 202 131 348t340 164v218h92v-218q134 -8 250 -73v-97q-138 80 -283 80q-183 0 -305.5 -121.5t-122.5 -302.5q0 -180 122.5 -299.5t305.5 -119.5q170 0 301 92v-99q-111 -75 -268 -84v-217h-92v217q-206 17 -338.5 162.5t-132.5 349.5z"/>
<glyph glyph-name="sterling" horiz-adv-x="1185" unicode="£" d="M133 0v94h49q94 0 94 162v365h-143v94h143v289q0 218 118.5 336t334.5 118q191 0 334 -94v-104q-61 47 -147.5 73.5t-176.5 26.5q-176 0 -269 -94t-93 -275v-276h598v-94h-598v-418q0 -38 -13.5 -67t-33.5 -42h739v-94h-936z"/>
<glyph glyph-name="currency" horiz-adv-x="1142" unicode="¤" d="M252 719q0 -134 92 -228t225 -94t225.5 94t92.5 228t-92.5 227.5t-225.5 93.5t-225 -93.5t-92 -227.5zM119 328l131 133q-88 115 -88 258q0 141 88 256l-131 133l63 59l131 -131q110 92 256 92q149 0 256 -92l133 131l64 -59l-135 -133q90 -110 90 -256q0 -147 -88 -258 l133 -133l-64 -58l-133 129q-108 -90 -256 -90q-146 0 -256 92l-131 -131z"/>
<glyph glyph-name="yen" horiz-adv-x="1253" unicode="¥" d="M53 1434h119l455 -676l454 676h117l-483 -715h403v-94h-442v-228h442v-94h-442v-303h-103v303h-438v94h438v228h-438v94h400z"/>
<glyph glyph-name="brokenbar" horiz-adv-x="608" unicode="¦" d="M256 834v722h94v-722h-94zM256 -227v723h94v-723h-94z"/>
<glyph glyph-name="section" horiz-adv-x="1314" unicode="§" d="M242 635q0 -35 13 -66.5t32.5 -56t53 -48t64.5 -40t78.5 -34.5t82.5 -30t87 -28q63 -25 170 -56q111 22 180.5 84.5t69.5 149.5q0 35 -13 66.5t-32.5 56t-53 48t-64.5 40t-78.5 34.5t-82.5 30t-87 28q-55 22 -170 55q-111 -23 -180.5 -84.5t-69.5 -148.5zM141 627 q0 105 66 179t180 112q-88 45 -133 102.5t-45 140.5q0 130 117 213.5t331 83.5q246 0 439 -117v-106q-204 125 -445 125q-158 0 -248 -54.5t-90 -148.5q0 -22 6 -41.5t15 -35.5t27 -31.5t33 -27t42.5 -25t47 -22t55.5 -21.5t58 -20t63.5 -20.5t64.5 -21.5q86 -29 148 -54.5 t122 -59.5t97 -70t59.5 -84t22.5 -105q0 -105 -66 -179t-180 -112q88 -45 133 -102.5t45 -140.5q0 -130 -117.5 -213.5t-331.5 -83.5q-247 0 -438 116v107q204 -125 445 -125q158 0 247.5 54.5t89.5 148.5q0 22 -6 41.5t-15 35.5t-26.5 31.5t-32.5 27t-43 25t-47.5 22 t-55 21.5t-57.5 20t-63.5 20.5t-64.5 21.5q-86 29 -148 54.5t-122 59.5t-97 70t-59.5 84t-22.5 105z"/>
<glyph glyph-name="dieresis" horiz-adv-x="1069" unicode="¨" d="M655 1321q0 32 23 55t55 23t55 -23t23 -55t-23 -55t-55 -23t-55 23t-23 55zM264 1321q0 32 23 55t55 23t55 -23t23 -55t-23 -55t-55 -23t-55 23t-23 55z"/>
<glyph glyph-name="copyright" horiz-adv-x="1787" unicode="©" d="M547 717q0 168 112.5 280.5t278.5 112.5q118 0 207 -53v-90q-86 59 -207 59q-127 0 -212 -87.5t-85 -221.5t85.5 -221.5t215.5 -87.5t223 75v-92q-94 -67 -227 -67q-166 0 -278.5 113t-112.5 280zM203 715q0 -141 54 -269t145.5 -220t219 -146.5t269.5 -54.5t271 54.5 t221.5 147t147 220t54.5 268.5q0 142 -54 270.5t-146.5 221.5t-220.5 147.5t-271 54.5q-142 0 -270 -54.5t-220 -147.5t-146 -221.5t-54 -270.5zM152 717q0 200 99 370.5t270 270.5t372 100q152 0 289 -58.5t236 -158t157.5 -237t58.5 -289.5q0 -150 -58.5 -286.5t-158 -236 t-237 -158.5t-289.5 -59q-202 0 -372.5 99.5t-268.5 270t-98 372.5z"/>
<glyph glyph-name="ordfeminine" horiz-adv-x="1077" unicode="ª" d="M238 901q0 -84 64 -128t155 -44q87 0 162 43.5t118 101.5v115q-44 30 -116.5 54t-145.5 24q-111 0 -174 -44t-63 -122zM147 897q0 117 91 181.5t217 64.5q151 0 282 -78v88q0 106 -67 158.5t-191 52.5q-73 0 -140 -23.5t-108 -54.5v86q109 72 265 72q146 0 237.5 -70 t91.5 -209v-329q0 -45 21 -70t57 -25q26 0 41 9v-76q-20 -10 -61 -10q-55 0 -93.5 31.5t-44.5 92.5q-127 -139 -311 -139q-119 0 -203 67t-84 181z"/>
<glyph glyph-name="guillemotleft" horiz-adv-x="1099" unicode="«" d="M563 463v55l318 375h118l-342 -406l342 -401h-118zM104 463v55l320 375h117l-342 -406l342 -401h-117z"/>
<glyph glyph-name="logicalnot" horiz-adv-x="1138" unicode="¬" d="M143 680v90h852v-451h-92v361h-760z"/>
<glyph glyph-name="uni00AD" horiz-adv-x="976" unicode="­" d="M211 506v92h555v-92h-555z"/>
<glyph glyph-name="registered" horiz-adv-x="1787" unicode="®" d="M713 760h254q74 0 113.5 34.5t39.5 98.5q0 65 -40 100t-113 35h-254v-268zM623 344v762h348q114 0 177.5 -58t63.5 -153q0 -79 -45.5 -132.5t-130.5 -70.5l248 -348h-104l-240 338h-227v-338h-90zM203 715q0 -141 54 -269t145.5 -220t219 -146.5t269.5 -54.5t271 54.5 t221.5 147t147 220t54.5 268.5q0 142 -54 270.5t-146.5 221.5t-220.5 147.5t-271 54.5q-142 0 -270 -54.5t-220 -147.5t-146 -221.5t-54 -270.5zM152 717q0 200 99 370.5t270 270.5t372 100q152 0 289 -58.5t236 -158t157.5 -237t58.5 -289.5q0 -150 -58.5 -286.5t-158 -236 t-237 -158.5t-289.5 -59q-202 0 -372.5 99.5t-268.5 270t-98 372.5z"/>
<glyph glyph-name="macron" horiz-adv-x="1062" unicode="¯" d="M291 1278v82h477v-82h-477z"/>
<glyph glyph-name="degree" horiz-adv-x="899" unicode="°" d="M229 1153q0 -92 64.5 -156.5t155.5 -64.5q92 0 156.5 64.5t64.5 156.5t-64.5 156.5t-156.5 64.5q-91 0 -155.5 -64.5t-64.5 -156.5zM143 1153q0 126 90.5 215.5t215.5 89.5q126 0 217.5 -89.5t91.5 -215.5t-91.5 -215.5t-217.5 -89.5q-125 0 -215.5 89.5t-90.5 215.5z "/>
<glyph glyph-name="plusminus" horiz-adv-x="1247" unicode="±" d="M143 737v94h435v355h92v-355h434v-94h-434v-350h-92v350h-435zM143 135v90h961v-90h-961z"/>
<glyph glyph-name="uni00B2" horiz-adv-x="731" unicode="²" d="M94 659v70l260 244q81 74 116.5 126.5t35.5 112.5q0 65 -46 104.5t-122 39.5q-126 0 -227 -94v98q96 84 235 84q108 0 181 -61.5t73 -159.5q0 -77 -41 -143t-131 -152l-197 -189h398v-80h-535z"/>
<glyph glyph-name="uni00B3" horiz-adv-x="661" unicode="³" d="M53 709v88q100 -66 226 -66q84 0 147 48t63 128q0 76 -54 121t-148 45q-45 0 -92 -14v63l235 232h-344v80h469v-68l-229 -225q48 -2 91.5 -16.5t81.5 -41.5t60.5 -73t22.5 -105q0 -114 -84 -185t-213 -71q-144 0 -232 60z"/>
<glyph glyph-name="acute" horiz-adv-x="1036" unicode="´" d="M391 1182l197 266h133l-223 -266h-107z"/>
<glyph glyph-name="uni00B5" horiz-adv-x="1259" unicode="µ" d="M182 -410v1389h101v-576q0 -333 309 -333q111 0 219.5 67.5t163.5 155.5v686h100v-979h-100v168q-65 -81 -172.5 -137t-241.5 -56q-179 0 -278 105v-490h-101z"/>
<glyph glyph-name="paragraph" horiz-adv-x="1038" unicode="¶" d="M104 1049q0 177 115.5 281t325.5 104h278v-1434h-100v666h-178q-209 0 -325 105t-116 278z"/>
<glyph glyph-name="periodcentered" horiz-adv-x="458" unicode="·" d="M147 780q0 34 24 58t58 24t58 -24t24 -58t-24 -58t-58 -24t-58 24t-24 58z"/>
<glyph glyph-name="cedilla" horiz-adv-x="968" unicode="¸" d="M301 -262l186 272h88l-151 -272h-123z"/>
<glyph glyph-name="uni00B9" horiz-adv-x="481" unicode="¹" d="M51 1208v95l219 131h88v-775h-94v676z"/>
<glyph glyph-name="ordmasculine" horiz-adv-x="960" unicode="º" d="M174 1047q0 -134 88 -224t221 -90q131 0 219.5 90.5t88.5 223.5q0 132 -88.5 221.5t-219.5 89.5q-133 0 -221 -89t-88 -222zM76 1044q0 107 49.5 198t144 146.5t213.5 55.5q178 0 290 -117.5t112 -282.5t-112 -280t-290 -115q-180 0 -293.5 115.5t-113.5 279.5z"/>
<glyph glyph-name="guillemotright" horiz-adv-x="1101" unicode="»" d="M561 86l342 403l-342 404h117l319 -375v-55l-319 -377h-117zM102 86l342 403l-342 404h117l320 -375v-55l-320 -377h-117z"/>
<glyph glyph-name="onequarter" horiz-adv-x="1499" unicode="¼" d="M930 287h305v364zM823 209v70l416 495h88v-487h125v-78h-125v-209h-92v209h-412zM240 0l835 1434h105l-836 -1434h-104zM51 1208v95l219 131h88v-775h-94v676z"/>
<glyph glyph-name="onehalf" horiz-adv-x="1634" unicode="½" d="M995 0v70l260 243q81 74 116.5 126.5t35.5 113.5q0 65 -46 104t-122 39q-126 0 -227 -94v98q96 84 235 84q108 0 181 -61.5t73 -159.5q0 -77 -41 -143t-131 -152l-196 -188h397v-80h-535zM240 0l835 1434h105l-836 -1434h-104zM51 1208v95l219 131h88v-775h-94v676z"/>
<glyph glyph-name="threequarters" horiz-adv-x="1607" unicode="¾" d="M1036 287h305v364zM930 209v70l416 495h88v-487h125v-78h-125v-209h-93v209h-411zM346 0l836 1434h104l-835 -1434h-105zM53 709v88q100 -66 226 -66q84 0 147 48t63 128q0 76 -54 121t-148 45q-45 0 -92 -14v63l235 232h-344v80h469v-68l-229 -225q48 -2 91.5 -16.5 t81.5 -41.5t60.5 -73t22.5 -105q0 -114 -84 -185t-213 -71q-144 0 -232 60z"/>
<glyph glyph-name="questiondown" horiz-adv-x="958" unicode="¿" d="M453 903q0 34 24 58t58 24t57.5 -24t23.5 -58t-23.5 -58t-57.5 -24t-58 24t-24 58zM106 -47q0 76 31.5 141.5t86 114t120.5 83.5t143 58v199h99v-258q-68 -15 -131.5 -42.5t-119.5 -68t-90 -99.5t-34 -126q0 -126 94 -203.5t240 -77.5q186 0 350 123v-100 q-66 -51 -163 -83t-204 -32q-177 0 -299.5 102t-122.5 269z"/>
<glyph glyph-name="Agrave" horiz-adv-x="1523" unicode="À" d="M483 1829h135l197 -266h-106zM399 508h727l-362 801zM68 0l649 1442h94l647 -1442h-106l-189 418h-801l-188 -418h-106z"/>
<glyph glyph-name="Aacute" horiz-adv-x="1523" unicode="Á" d="M719 1563l196 266h134l-224 -266h-106zM399 508h727l-362 801zM68 0l649 1442h94l647 -1442h-106l-189 418h-801l-188 -418h-106z"/>
<glyph glyph-name="Acircumflex" horiz-adv-x="1523" unicode="Â" d="M489 1563l222 266h106l221 -266h-108l-166 200l-166 -200h-109zM399 508h727l-362 801zM68 0l649 1442h94l647 -1442h-106l-189 418h-801l-188 -418h-106z"/>
<glyph glyph-name="Atilde" horiz-adv-x="1523" unicode="Ã" d="M457 1599q5 92 46 146.5t111 54.5q37 0 80 -19t75 -42.5t70 -42.5t66 -19q43 0 61 30t25 85h78q-5 -93 -46.5 -149t-113.5 -56q-36 0 -78.5 20t-75 44.5t-70 44.5t-64.5 20q-74 0 -86 -117h-78zM399 508h727l-362 801zM68 0l649 1442h94l647 -1442h-106l-189 418h-801 l-188 -418h-106z"/>
<glyph glyph-name="Adieresis" horiz-adv-x="1523" unicode="Ä" d="M881 1690q0 32 22.5 54.5t54.5 22.5t55 -22.5t23 -54.5t-23 -55t-55 -23t-54.5 23t-22.5 55zM489 1690q0 32 23 54.5t55 22.5t55 -22.5t23 -54.5t-23 -55t-55 -23t-55 23t-23 55zM399 508h727l-362 801zM68 0l649 1442h94l647 -1442h-106l-189 418h-801l-188 -418h-106z "/>
<glyph glyph-name="Aring" horiz-adv-x="1523" unicode="Å" d="M643 1698q0 -51 35.5 -86t89.5 -35q51 0 86 35t35 86q0 54 -34.5 88.5t-86.5 34.5q-54 0 -89.5 -34.5t-35.5 -88.5zM573 1698q0 79 57 135.5t138 56.5q76 0 132 -57t56 -135t-55.5 -134.5t-132.5 -56.5q-81 0 -138 56.5t-57 134.5zM399 508h727l-362 801zM68 0l649 1442 h94l647 -1442h-106l-189 418h-801l-188 -418h-106z"/>
<glyph glyph-name="AE" horiz-adv-x="2080" unicode="Æ" d="M440 508h557v831h-26zM6 0l905 1434h1041v-95h-852v-520h702v-96h-702v-629h882v-94h-985v418h-612l-264 -418h-115z"/>
<glyph glyph-name="Ccedilla" horiz-adv-x="1419" unicode="Ç" d="M152 717q0 212 95 382t260 264.5t367 94.5q238 0 410 -112v-109q-191 123 -407 123q-171 0 -313 -82t-225 -230t-83 -331t83 -331.5t225.5 -231t314.5 -82.5q250 0 438 149v-112q-164 -123 -397 -132l-134 -239h-124l159 239q-142 9 -265.5 68.5t-212.5 155.5t-140 229.5 t-51 286.5z"/>
<glyph glyph-name="Egrave" horiz-adv-x="1304" unicode="È" d="M436 1829h135l197 -266h-106zM213 0v1434h963v-95h-861v-520h711v-96h-711v-629h893v-94h-995z"/>
<glyph glyph-name="Eacute" horiz-adv-x="1304" unicode="É" d="M592 1563l196 266h134l-224 -266h-106zM213 0v1434h963v-95h-861v-520h711v-96h-711v-629h893v-94h-995z"/>
<glyph glyph-name="Ecircumflex" horiz-adv-x="1304" unicode="Ê" d="M438 1563l221 266h107l221 -266h-108l-166 200l-166 -200h-109zM213 0v1434h963v-95h-861v-520h711v-96h-711v-629h893v-94h-995z"/>
<glyph glyph-name="Edieresis" horiz-adv-x="1304" unicode="Ë" d="M825 1690q0 32 23 54.5t55 22.5t55 -22.5t23 -54.5t-23 -55t-55 -23t-55 23t-23 55zM434 1690q0 32 23 54.5t55 22.5t55 -22.5t23 -54.5t-23 -55t-55 -23t-55 23t-23 55zM213 0v1434h963v-95h-861v-520h711v-96h-711v-629h893v-94h-995z"/>
<glyph glyph-name="Igrave" horiz-adv-x="555" unicode="Ì" d="M227 0v1434h103v-1434h-103zM-4 1829h135l197 -266h-107z"/>
<glyph glyph-name="Iacute" horiz-adv-x="555" unicode="Í" d="M227 0v1434h103v-1434h-103zM217 1563l197 266h133l-223 -266h-107z"/>
<glyph glyph-name="Icircumflex" horiz-adv-x="555" unicode="Î" d="M227 0v1434h103v-1434h-103zM4 1563l221 266h107l221 -266h-109l-165 200l-166 -200h-109z"/>
<glyph glyph-name="Idieresis" horiz-adv-x="552" unicode="Ï" d="M393 1690q0 32 23 54.5t55 22.5t55 -22.5t23 -54.5t-23 -55t-55 -23t-55 23t-23 55zM225 0v1434h103v-1434h-103zM2 1690q0 32 23 54.5t55 22.5t55 -22.5t23 -54.5t-23 -55t-55 -23t-55 23t-23 55z"/>
<glyph glyph-name="Eth" horiz-adv-x="1677" unicode="Ð" d="M408 94h329q315 0 499.5 170.5t184.5 452.5t-184 452t-500 170h-329v-567h348v-94h-348v-584zM68 678v94h237v662h449q170 0 314 -52.5t244.5 -146t157 -227t56.5 -291.5t-56.5 -291.5t-157 -227t-244.5 -146t-314 -52.5h-449v678h-237z"/>
<glyph glyph-name="Ntilde" horiz-adv-x="1587" unicode="Ñ" d="M487 1599q5 92 46.5 146.5t111.5 54.5q37 0 80 -19t75 -42.5t70 -42.5t66 -19q43 0 61 30t25 85h78q-5 -93 -46.5 -149t-113.5 -56q-45 0 -100 32.5t-105 64.5t-84 32q-74 0 -86 -117h-78zM213 0v1434h90l967 -1256v1256h102v-1434h-88l-969 1257v-1257h-102z"/>
<glyph glyph-name="Ograve" d="M588 1829h135l197 -266h-107zM256 717q0 -137 48 -257t129.5 -205t194 -134t238.5 -49t238.5 49t194 134t129 205t47.5 257t-47.5 257t-129 204.5t-194 133t-238.5 48.5q-168 0 -307.5 -82.5t-221 -230.5t-81.5 -330zM152 717q0 209 93 379t256.5 266t364.5 96 q149 0 281 -56.5t227 -154.5t150 -236t55 -294q0 -157 -55 -295t-150 -236t-227 -154.5t-281 -56.5q-201 0 -364.5 96t-256.5 266t-93 380z" unicode="Ò"/>
<glyph glyph-name="Oacute" d="M772 1563l197 266h133l-223 -266h-107zM256 717q0 -137 48 -257t129.5 -205t194 -134t238.5 -49t238.5 49t194 134t129 205t47.5 257t-47.5 257t-129 204.5t-194 133t-238.5 48.5q-168 0 -307.5 -82.5t-221 -230.5t-81.5 -330zM152 717q0 209 93 379t256.5 266t364.5 96 q149 0 281 -56.5t227 -154.5t150 -236t55 -294q0 -157 -55 -295t-150 -236t-227 -154.5t-281 -56.5q-201 0 -364.5 96t-256.5 266t-93 380z" unicode="Ó"/>
<glyph glyph-name="Ocircumflex" d="M592 1563l221 266h107l221 -266h-109l-166 200l-166 -200h-108zM256 717q0 -137 48 -257t129.5 -205t194 -134t238.5 -49t238.5 49t194 134t129 205t47.5 257t-47.5 257t-129 204.5t-194 133t-238.5 48.5q-168 0 -307.5 -82.5t-221 -230.5t-81.5 -330zM152 717 q0 209 93 379t256.5 266t364.5 96q149 0 281 -56.5t227 -154.5t150 -236t55 -294q0 -157 -55 -295t-150 -236t-227 -154.5t-281 -56.5q-201 0 -364.5 96t-256.5 266t-93 380z" unicode="Ô"/>
<glyph glyph-name="Otilde" d="M561 1599q5 92 46.5 146.5t111.5 54.5q37 0 80 -19t75 -42.5t70 -42.5t66 -19q43 0 61 30t25 85h78q-5 -93 -46.5 -149t-113.5 -56q-45 0 -100 32.5t-105 64.5t-84 32q-74 0 -86 -117h-78zM256 717q0 -137 48 -257t129.5 -205t194 -134t238.5 -49t238.5 49t194 134 t129 205t47.5 257t-47.5 257t-129 204.5t-194 133t-238.5 48.5q-168 0 -307.5 -82.5t-221 -230.5t-81.5 -330zM152 717q0 209 93 379t256.5 266t364.5 96q149 0 281 -56.5t227 -154.5t150 -236t55 -294q0 -157 -55 -295t-150 -236t-227 -154.5t-281 -56.5q-201 0 -364.5 96 t-256.5 266t-93 380z" unicode="Õ"/>
<glyph glyph-name="Odieresis" d="M985 1690q0 32 23 54.5t55 22.5t55 -22.5t23 -54.5t-23 -55t-55 -23t-55 23t-23 55zM594 1690q0 32 23 54.5t55 22.5t55 -22.5t23 -54.5t-23 -55t-55 -23t-55 23t-23 55zM256 717q0 -137 48 -257t129.5 -205t194 -134t238.5 -49t238.5 49t194 134t129 205t47.5 257 t-47.5 257t-129 204.5t-194 133t-238.5 48.5q-168 0 -307.5 -82.5t-221 -230.5t-81.5 -330zM152 717q0 209 93 379t256.5 266t364.5 96q149 0 281 -56.5t227 -154.5t150 -236t55 -294q0 -157 -55 -295t-150 -236t-227 -154.5t-281 -56.5q-201 0 -364.5 96t-256.5 266 t-93 380z" unicode="Ö"/>
<glyph glyph-name="multiply" horiz-adv-x="1071" unicode="×" d="M143 336l328 326l-328 329l64 64l330 -326l325 326l66 -64l-330 -329l328 -324l-64 -68l-323 328l-332 -328z"/>
<glyph glyph-name="Oslash" d="M494 201q160 -129 372 -129q126 0 238.5 49t194 134t129 205t47.5 257q0 276 -175 457zM256 717q0 -279 174 -459l809 973q-160 129 -373 129q-168 0 -307.5 -82.5t-221 -230.5t-81.5 -330zM152 717q0 209 93 379t256.5 266t364.5 96q244 0 439 -149l102 125h111 l-150 -183q100 -102 155.5 -239t55.5 -295q0 -157 -55 -295t-150 -236t-227 -154.5t-281 -56.5q-244 0 -438 148l-102 -123h-109l148 178q-102 102 -157.5 240t-55.5 299z" unicode="Ø"/>
<glyph glyph-name="Ugrave" horiz-adv-x="1529" unicode="Ù" d="M510 1829h135l197 -266h-107zM190 612v822h103v-822q0 -256 126.5 -398t346.5 -142t345.5 141.5t125.5 398.5v822h102v-822q0 -153 -42.5 -274.5t-119.5 -200.5t-181.5 -120.5t-229.5 -41.5q-259 0 -417.5 166.5t-158.5 470.5z"/>
<glyph glyph-name="Uacute" horiz-adv-x="1529" unicode="Ú" d="M700 1563l197 266h133l-223 -266h-107zM190 612v822h103v-822q0 -256 126.5 -398t346.5 -142t345.5 141.5t125.5 398.5v822h102v-822q0 -153 -42.5 -274.5t-119.5 -200.5t-181.5 -120.5t-229.5 -41.5q-259 0 -417.5 166.5t-158.5 470.5z"/>
<glyph glyph-name="Ucircumflex" horiz-adv-x="1529" unicode="Û" d="M489 1563l222 266h106l221 -266h-108l-166 200l-166 -200h-109zM190 612v822h103v-822q0 -256 126.5 -398t346.5 -142t345.5 141.5t125.5 398.5v822h102v-822q0 -153 -42.5 -274.5t-119.5 -200.5t-181.5 -120.5t-229.5 -41.5q-259 0 -417.5 166.5t-158.5 470.5z"/>
<glyph glyph-name="Udieresis" horiz-adv-x="1529" unicode="Ü" d="M883 1690q0 32 23 54.5t55 22.5t54.5 -22.5t22.5 -54.5t-22.5 -55t-54.5 -23t-55 23t-23 55zM492 1690q0 32 22.5 54.5t54.5 22.5t55 -22.5t23 -54.5t-23 -55t-55 -23t-54.5 23t-22.5 55zM190 612v822h103v-822q0 -256 126.5 -398t346.5 -142t345.5 141.5t125.5 398.5 v822h102v-822q0 -153 -42.5 -274.5t-119.5 -200.5t-181.5 -120.5t-229.5 -41.5q-259 0 -417.5 166.5t-158.5 470.5z"/>
<glyph glyph-name="Yacute" horiz-adv-x="1329" unicode="Ý" d="M590 1563l196 266h134l-224 -266h-106zM53 1434h123l488 -674l491 674h117l-559 -768v-666h-103v664z"/>
<glyph glyph-name="Thorn" horiz-adv-x="1361" unicode="Þ" d="M315 422h486q169 0 260.5 77t91.5 218q0 140 -91.5 215.5t-260.5 75.5h-486v-586zM213 0v1434h102v-330h496q211 0 327.5 -106t116.5 -281q0 -176 -116.5 -282.5t-327.5 -106.5h-496v-328h-102z"/>
<glyph glyph-name="germandbls" horiz-adv-x="1257" unicode="ß" d="M182 0v1016q0 196 118 314t310 118q180 0 294 -99.5t114 -250.5q0 -117 -57.5 -189.5t-157.5 -103.5q146 -32 244 -139.5t98 -280.5q0 -187 -126 -298.5t-321 -111.5q-121 0 -192 31v98q73 -36 178 -36q156 0 257 88.5t101 238.5q0 159 -117 259t-309 100h-45v88h45 q141 0 220 63.5t79 184.5q0 116 -84.5 191t-220.5 75q-145 0 -236 -92t-91 -248v-1016h-101z"/>
<glyph glyph-name="agrave" horiz-adv-x="1208" unicode="à" d="M365 1448h137l196 -266h-106zM203 299q0 -60 25.5 -106t68.5 -72.5t95.5 -39.5t111.5 -13q119 0 219 56t160 134v160q-65 44 -158 77t-195 33q-154 0 -240.5 -62t-86.5 -167zM98 297q0 144 116.5 231.5t289.5 87.5q206 0 379 -104v125q0 140 -90.5 207t-253.5 67 q-95 0 -182 -31t-148 -73v100q149 97 348 97q191 0 308.5 -89.5t117.5 -269.5v-430q0 -64 28 -100.5t76 -36.5q34 0 58 12v-82q-26 -16 -82 -16q-67 0 -115.5 41.5t-54.5 126.5q-166 -185 -418 -185q-98 0 -182 35t-139.5 110t-55.5 177z"/>
<glyph glyph-name="aacute" horiz-adv-x="1208" unicode="á" d="M481 1182l197 266h133l-223 -266h-107zM203 299q0 -60 25.5 -106t68.5 -72.5t95.5 -39.5t111.5 -13q119 0 219 56t160 134v160q-65 44 -158 77t-195 33q-154 0 -240.5 -62t-86.5 -167zM98 297q0 144 116.5 231.5t289.5 87.5q206 0 379 -104v125q0 140 -90.5 207 t-253.5 67q-95 0 -182 -31t-148 -73v100q149 97 348 97q191 0 308.5 -89.5t117.5 -269.5v-430q0 -64 28 -100.5t76 -36.5q34 0 58 12v-82q-26 -16 -82 -16q-67 0 -115.5 41.5t-54.5 126.5q-166 -185 -418 -185q-98 0 -182 35t-139.5 110t-55.5 177z"/>
<glyph glyph-name="acircumflex" horiz-adv-x="1208" unicode="â" d="M293 1180l223 268h107l221 -268h-109l-168 200l-166 -200h-108zM203 299q0 -60 25.5 -106t68.5 -72.5t95.5 -39.5t111.5 -13q119 0 219 56t160 134v160q-65 44 -158 77t-195 33q-154 0 -240.5 -62t-86.5 -167zM98 297q0 144 116.5 231.5t289.5 87.5q206 0 379 -104v125 q0 140 -90.5 207t-253.5 67q-95 0 -182 -31t-148 -73v100q149 97 348 97q191 0 308.5 -89.5t117.5 -269.5v-430q0 -64 28 -100.5t76 -36.5q34 0 58 12v-82q-26 -16 -82 -16q-67 0 -115.5 41.5t-54.5 126.5q-166 -185 -418 -185q-98 0 -182 35t-139.5 110t-55.5 177z"/>
<glyph glyph-name="atilde" horiz-adv-x="1208" unicode="ã" d="M268 1225q5 93 47.5 147.5t112.5 54.5q37 0 80 -19.5t75.5 -42.5t69.5 -42.5t64 -19.5q42 0 60.5 30.5t23.5 83.5h78q-3 -93 -44.5 -149t-111.5 -56q-37 0 -80.5 20t-75.5 43.5t-70.5 43.5t-66.5 20q-72 0 -84 -114h-78zM203 299q0 -60 25.5 -106t68.5 -72.5t95.5 -39.5 t111.5 -13q119 0 219 56t160 134v160q-65 44 -158 77t-195 33q-154 0 -240.5 -62t-86.5 -167zM98 297q0 144 116.5 231.5t289.5 87.5q206 0 379 -104v125q0 140 -90.5 207t-253.5 67q-95 0 -182 -31t-148 -73v100q149 97 348 97q191 0 308.5 -89.5t117.5 -269.5v-430 q0 -64 28 -100.5t76 -36.5q34 0 58 12v-82q-26 -16 -82 -16q-67 0 -115.5 41.5t-54.5 126.5q-166 -185 -418 -185q-98 0 -182 35t-139.5 110t-55.5 177z"/>
<glyph glyph-name="adieresis" horiz-adv-x="1208" unicode="ä" d="M705 1321q0 32 22.5 55t54.5 23t55 -23t23 -55t-23 -55t-55 -23t-54.5 23t-22.5 55zM313 1321q0 32 23 55t55 23t55 -23t23 -55t-23 -55t-55 -23t-55 23t-23 55zM203 299q0 -60 25.5 -106t68.5 -72.5t95.5 -39.5t111.5 -13q119 0 219 56t160 134v160q-65 44 -158 77 t-195 33q-154 0 -240.5 -62t-86.5 -167zM98 297q0 144 116.5 231.5t289.5 87.5q206 0 379 -104v125q0 140 -90.5 207t-253.5 67q-95 0 -182 -31t-148 -73v100q149 97 348 97q191 0 308.5 -89.5t117.5 -269.5v-430q0 -64 28 -100.5t76 -36.5q34 0 58 12v-82q-26 -16 -82 -16 q-67 0 -115.5 41.5t-54.5 126.5q-166 -185 -418 -185q-98 0 -182 35t-139.5 110t-55.5 177z"/>
<glyph glyph-name="aring" horiz-adv-x="1208" unicode="å" d="M455 1321q0 -51 36 -86t89 -35q51 0 86.5 35t35.5 86q0 53 -35 88t-87 35q-53 0 -89 -35t-36 -88zM385 1321q0 79 57 135.5t138 56.5q78 0 133 -57t55 -135t-55 -134.5t-133 -56.5q-81 0 -138 56.5t-57 134.5zM203 299q0 -60 25.5 -106t68.5 -72.5t95.5 -39.5t111.5 -13 q119 0 219 56t160 134v160q-65 44 -158 77t-195 33q-154 0 -240.5 -62t-86.5 -167zM98 297q0 144 116.5 231.5t289.5 87.5q206 0 379 -104v125q0 140 -90.5 207t-253.5 67q-95 0 -182 -31t-148 -73v100q149 97 348 97q191 0 308.5 -89.5t117.5 -269.5v-430q0 -64 28 -100.5 t76 -36.5q34 0 58 12v-82q-26 -16 -82 -16q-67 0 -115.5 41.5t-54.5 126.5q-166 -185 -418 -185q-98 0 -182 35t-139.5 110t-55.5 177z"/>
<glyph glyph-name="ae" horiz-adv-x="1933" unicode="æ" d="M983 559h737q0 43 -11.5 89t-38.5 94t-66 85t-101 60.5t-137 23.5q-86 0 -158.5 -31t-119 -82t-74 -113t-31.5 -126zM203 299q0 -79 44.5 -133t111 -76t149.5 -22q242 0 410 223q-23 60 -31 125q-177 114 -357 114q-153 0 -240 -62.5t-87 -168.5zM98 297q0 144 116 230.5 t290 86.5q204 0 381 -104v125q0 141 -91 208.5t-255 67.5q-95 0 -182 -31t-148 -73v100q151 97 348 97q148 0 254.5 -57t146.5 -171q63 107 169 167.5t241 60.5q82 0 152 -23t118 -62.5t84.5 -89.5t57.5 -107t31 -110.5t10 -105.5v-33h-840q6 -181 130.5 -293t318.5 -112 q181 0 315 92v-97q-52 -39 -140 -63.5t-190 -24.5q-151 0 -271 64t-188 178q-28 -37 -68 -73.5t-99.5 -77t-140 -66t-165.5 -25.5q-103 0 -189 35t-141 110t-55 177z"/>
<glyph glyph-name="ccedilla" horiz-adv-x="1073" unicode="ç" d="M111 489q0 141 65 258.5t184.5 187t268.5 69.5q166 0 295 -76v-97q-138 80 -283 80q-183 0 -305.5 -121.5t-122.5 -302.5q0 -180 122.5 -299.5t305.5 -119.5q170 0 301 92v-99q-110 -72 -250 -84l-133 -239h-123l162 237q-212 9 -349.5 157.5t-137.5 356.5z"/>
<glyph glyph-name="egrave" horiz-adv-x="1163" unicode="è" d="M401 1448h138l196 -266h-106zM213 559h737q0 43 -11.5 89t-38.5 94t-66.5 85t-101 60.5t-136.5 23.5q-86 0 -158.5 -31t-119 -82t-74 -113t-31.5 -126zM111 487q0 222 136.5 369.5t350.5 147.5q82 0 152 -23t118 -62.5t84.5 -89.5t57.5 -107t31 -110.5t10 -105.5v-33 h-840q6 -181 130 -293t318 -112q182 0 316 92v-97q-52 -39 -140 -63.5t-190 -24.5q-229 0 -381.5 144t-152.5 368z"/>
<glyph glyph-name="eacute" horiz-adv-x="1163" unicode="é" d="M492 1182l196 266h133l-223 -266h-106zM213 559h737q0 43 -11.5 89t-38.5 94t-66.5 85t-101 60.5t-136.5 23.5q-86 0 -158.5 -31t-119 -82t-74 -113t-31.5 -126zM111 487q0 222 136.5 369.5t350.5 147.5q82 0 152 -23t118 -62.5t84.5 -89.5t57.5 -107t31 -110.5 t10 -105.5v-33h-840q6 -181 130 -293t318 -112q182 0 316 92v-97q-52 -39 -140 -63.5t-190 -24.5q-229 0 -381.5 144t-152.5 368z"/>
<glyph glyph-name="ecircumflex" horiz-adv-x="1163" unicode="ê" d="M319 1180l224 268h106l221 -268h-108l-168 200l-166 -200h-109zM213 559h737q0 43 -11.5 89t-38.5 94t-66.5 85t-101 60.5t-136.5 23.5q-86 0 -158.5 -31t-119 -82t-74 -113t-31.5 -126zM111 487q0 222 136.5 369.5t350.5 147.5q82 0 152 -23t118 -62.5t84.5 -89.5 t57.5 -107t31 -110.5t10 -105.5v-33h-840q6 -181 130 -293t318 -112q182 0 316 92v-97q-52 -39 -140 -63.5t-190 -24.5q-229 0 -381.5 144t-152.5 368z"/>
<glyph glyph-name="edieresis" horiz-adv-x="1163" unicode="ë" d="M727 1321q0 32 23 55t55 23t55 -23t23 -55t-23 -55t-55 -23t-55 23t-23 55zM336 1321q0 32 23 55t55 23t55 -23t23 -55t-23 -55t-55 -23t-55 23t-23 55zM213 559h737q0 43 -11.5 89t-38.5 94t-66.5 85t-101 60.5t-136.5 23.5q-86 0 -158.5 -31t-119 -82t-74 -113 t-31.5 -126zM111 487q0 222 136.5 369.5t350.5 147.5q82 0 152 -23t118 -62.5t84.5 -89.5t57.5 -107t31 -110.5t10 -105.5v-33h-840q6 -181 130 -293t318 -112q182 0 316 92v-97q-52 -39 -140 -63.5t-190 -24.5q-229 0 -381.5 144t-152.5 368z"/>
<glyph glyph-name="igrave" horiz-adv-x="518" unicode="ì" d="M209 0v979h100v-979h-100zM-18 1448h137l196 -266h-106z"/>
<glyph glyph-name="iacute" horiz-adv-x="518" unicode="í" d="M209 0v979h100v-979h-100zM207 1182l196 266h134l-224 -266h-106z"/>
<glyph glyph-name="icircumflex" horiz-adv-x="518" unicode="î" d="M209 0v979h100v-979h-100zM-16 1180l223 268h106l222 -268h-109l-168 200l-166 -200h-108z"/>
<glyph glyph-name="idieresis" horiz-adv-x="518" unicode="ï" d="M377 1321q0 32 23 55t55 23t54.5 -23t22.5 -55t-22.5 -55t-54.5 -23t-55 23t-23 55zM209 0v979h100v-979h-100zM-14 1321q0 32 22.5 55t54.5 23t55 -23t23 -55t-23 -55t-55 -23t-54.5 23t-22.5 55z"/>
<glyph glyph-name="eth" horiz-adv-x="1218" unicode="ð" d="M213 465q0 -169 113 -283t282 -114q170 0 284 114t114 283t-114 281t-284 112q-169 0 -282 -112t-113 -281zM111 463q0 129 58.5 238.5t169 176t249.5 66.5q143 0 243 -57l-231 330l-281 -113l-45 65l279 115l-111 150h113l84 -117l244 102l45 -65l-244 -103 q234 -334 297 -434q62 -94 94.5 -172t32.5 -176q0 -97 -36 -186.5t-100 -158t-158.5 -109t-205.5 -40.5q-147 0 -262 69t-175 179.5t-60 239.5z"/>
<glyph glyph-name="ntilde" horiz-adv-x="1239" unicode="ñ" d="M324 1225q5 93 47 147.5t112 54.5q37 0 80 -19.5t75.5 -42.5t69.5 -42.5t64 -19.5q42 0 60.5 30.5t23.5 83.5h78q-3 -93 -44.5 -149t-111.5 -56q-37 0 -80.5 20t-75.5 43.5t-70.5 43.5t-66.5 20q-72 0 -84 -114h-77zM182 0v979h101v-168q65 81 172 137t241 56 q188 0 283.5 -106.5t95.5 -301.5v-596h-100v575q0 82 -20.5 144.5t-51 97.5t-74 56.5t-82 28.5t-81.5 7q-112 0 -221 -67.5t-162 -155.5v-686h-101z"/>
<glyph glyph-name="ograve" horiz-adv-x="1263" unicode="ò" d="M393 1448h137l197 -266h-106zM213 487q0 -177 120 -298t298 -121t299 121t121 298q0 180 -121 302t-299 122t-298 -122t-120 -302zM111 487q0 102 37.5 195.5t104 165t165 114t213.5 42.5q116 0 215 -42.5t165.5 -114t104 -165t37.5 -195.5q0 -101 -37.5 -194 t-104 -163.5t-165.5 -112.5t-215 -42q-115 0 -213.5 42t-165 112.5t-104 163.5t-37.5 194z"/>
<glyph glyph-name="oacute" horiz-adv-x="1263" unicode="ó" d="M561 1182l197 266h133l-223 -266h-107zM213 487q0 -177 120 -298t298 -121t299 121t121 298q0 180 -121 302t-299 122t-298 -122t-120 -302zM111 487q0 102 37.5 195.5t104 165t165 114t213.5 42.5q116 0 215 -42.5t165.5 -114t104 -165t37.5 -195.5q0 -101 -37.5 -194 t-104 -163.5t-165.5 -112.5t-215 -42q-115 0 -213.5 42t-165 112.5t-104 163.5t-37.5 194z"/>
<glyph glyph-name="ocircumflex" horiz-adv-x="1263" unicode="ô" d="M358 1180l224 268h106l221 -268h-108l-168 200l-166 -200h-109zM213 487q0 -177 120 -298t298 -121t299 121t121 298q0 180 -121 302t-299 122t-298 -122t-120 -302zM111 487q0 102 37.5 195.5t104 165t165 114t213.5 42.5q116 0 215 -42.5t165.5 -114t104 -165 t37.5 -195.5q0 -101 -37.5 -194t-104 -163.5t-165.5 -112.5t-215 -42q-115 0 -213.5 42t-165 112.5t-104 163.5t-37.5 194z"/>
<glyph glyph-name="otilde" horiz-adv-x="1263" unicode="õ" d="M328 1225q5 93 47 147.5t112 54.5q37 0 80 -19.5t75.5 -42.5t69.5 -42.5t64 -19.5q42 0 60.5 30.5t23.5 83.5h78q-3 -93 -44.5 -149t-111.5 -56q-37 0 -80.5 20t-75.5 43.5t-70.5 43.5t-66.5 20q-71 0 -83 -114h-78zM213 487q0 -177 120 -298t298 -121t299 121t121 298 q0 180 -121 302t-299 122t-298 -122t-120 -302zM111 487q0 102 37.5 195.5t104 165t165 114t213.5 42.5q116 0 215 -42.5t165.5 -114t104 -165t37.5 -195.5q0 -101 -37.5 -194t-104 -163.5t-165.5 -112.5t-215 -42q-115 0 -213.5 42t-165 112.5t-104 163.5t-37.5 194z"/>
<glyph glyph-name="odieresis" horiz-adv-x="1263" unicode="ö" d="M750 1321q0 32 22.5 55t54.5 23t55 -23t23 -55t-23 -55t-55 -23t-54.5 23t-22.5 55zM358 1321q0 32 23 55t55 23t55 -23t23 -55t-23 -55t-55 -23t-55 23t-23 55zM213 487q0 -177 120 -298t298 -121t299 121t121 298q0 180 -121 302t-299 122t-298 -122t-120 -302z M111 487q0 102 37.5 195.5t104 165t165 114t213.5 42.5q116 0 215 -42.5t165.5 -114t104 -165t37.5 -195.5q0 -101 -37.5 -194t-104 -163.5t-165.5 -112.5t-215 -42q-115 0 -213.5 42t-165 112.5t-104 163.5t-37.5 194z"/>
<glyph glyph-name="divide" horiz-adv-x="1189" unicode="÷" d="M504 1063q0 37 26.5 63.5t63.5 26.5t63.5 -26.5t26.5 -63.5t-26.5 -63.5t-63.5 -26.5t-63.5 26.5t-26.5 63.5zM504 262q0 37 26.5 63.5t63.5 26.5t63.5 -26.5t26.5 -63.5t-26.5 -63.5t-63.5 -26.5t-63.5 26.5t-26.5 63.5zM143 616v93h904v-93h-904z"/>
<glyph glyph-name="oslash" horiz-adv-x="1263" unicode="ø" d="M391 139q107 -71 240 -71q178 0 299 121t121 298q0 178 -119 297zM213 487q0 -173 117 -297l540 648q-110 73 -239 73q-178 0 -298 -122t-120 -302zM111 487q0 102 37.5 195.5t104 165t165 114t213.5 42.5q165 0 301 -91l55 66h107l-97 -119q74 -72 115 -170t41 -203 q0 -101 -37.5 -194t-104 -163.5t-165.5 -112.5t-215 -42q-170 0 -301 88l-56 -63h-106l98 117q-155 149 -155 370z"/>
<glyph glyph-name="ugrave" horiz-adv-x="1243" unicode="ù" d="M395 1448h137l197 -266h-106zM166 383v596h100v-576q0 -333 309 -333q111 0 219.5 67.5t163.5 155.5v686h101v-979h-101v168q-65 -81 -172 -137t-241 -56q-188 0 -283.5 106.5t-95.5 301.5z"/>
<glyph glyph-name="uacute" horiz-adv-x="1243" unicode="ú" d="M508 1182l197 266h133l-224 -266h-106zM166 383v596h100v-576q0 -333 309 -333q111 0 219.5 67.5t163.5 155.5v686h101v-979h-101v168q-65 -81 -172 -137t-241 -56q-188 0 -283.5 106.5t-95.5 301.5z"/>
<glyph glyph-name="ucircumflex" horiz-adv-x="1243" unicode="û" d="M336 1180l223 268h107l221 -268h-109l-168 200l-166 -200h-108zM166 383v596h100v-576q0 -333 309 -333q111 0 219.5 67.5t163.5 155.5v686h101v-979h-101v168q-65 -81 -172 -137t-241 -56q-188 0 -283.5 106.5t-95.5 301.5z"/>
<glyph glyph-name="udieresis" horiz-adv-x="1243" unicode="ü" d="M729 1321q0 32 23 55t55 23t55 -23t23 -55t-23 -55t-55 -23t-55 23t-23 55zM338 1321q0 32 23 55t55 23t55 -23t23 -55t-23 -55t-55 -23t-55 23t-23 55zM166 383v596h100v-576q0 -333 309 -333q111 0 219.5 67.5t163.5 155.5v686h101v-979h-101v168q-65 -81 -172 -137 t-241 -56q-188 0 -283.5 106.5t-95.5 301.5z"/>
<glyph glyph-name="yacute" horiz-adv-x="1114" unicode="ý" d="M473 1182l197 266h133l-223 -266h-107zM53 979h113l389 -840l377 840h110l-493 -1090q-70 -153 -148 -230t-190 -77q-99 0 -143 31v94q56 -33 131 -33q51 0 92 21t78 70t66.5 104.5t70.5 148.5z"/>
<glyph glyph-name="thorn" horiz-adv-x="1294" unicode="þ" d="M283 309q48 -105 153 -173t228 -68q178 0 296.5 121t118.5 300t-118.5 300.5t-296.5 121.5q-123 0 -228 -67t-153 -172v-363zM182 -410v1844h101v-625q65 89 167.5 142t233.5 53q110 0 204.5 -42.5t158.5 -113t100.5 -164t36.5 -195.5q0 -101 -36.5 -194t-100.5 -164 t-158.5 -113.5t-204.5 -42.5q-131 0 -233.5 53.5t-167.5 143.5v-582h-101z"/>
<glyph glyph-name="OE" horiz-adv-x="2336" unicode="Œ" d="M258 717q0 -283 184 -453t504 -170h307v1245h-307q-321 0 -504.5 -169.5t-183.5 -452.5zM152 717q0 211 97.5 374t274 253t404.5 90h1278v-95h-852v-520h702v-96h-702v-629h884v-94h-1310q-228 0 -404.5 90t-274 253t-97.5 374z"/>
<glyph glyph-name="oe" horiz-adv-x="2101" unicode="œ" d="M1151 559h737q0 43 -11.5 89t-38.5 94t-66 85t-101 60.5t-137 23.5q-86 0 -158.5 -31t-119 -82t-74 -113t-31.5 -126zM213 487q0 -177 120 -298t298 -121t299 121t121 298q0 180 -121 302t-299 122t-298 -122t-120 -302zM111 487q0 102 37.5 195.5t104 165t165 114 t213.5 42.5q159 0 281.5 -78.5t183.5 -206.5q57 132 171.5 208.5t268.5 76.5q82 0 152 -23t118 -62.5t84.5 -89.5t57.5 -107t31 -110.5t10 -105.5v-33h-840q6 -181 130 -293t318 -112q182 0 316 92v-97q-52 -39 -140 -63.5t-190 -24.5q-163 0 -291.5 76t-191.5 209 q-62 -130 -184 -207.5t-285 -77.5q-115 0 -213.5 42t-165 112.5t-104 163.5t-37.5 194z"/>
<glyph glyph-name="Ydieresis" horiz-adv-x="1329" unicode="Ÿ" d="M782 1690q0 32 23 54.5t55 22.5t55 -22.5t23 -54.5t-23 -55t-55 -23t-55 23t-23 55zM391 1690q0 32 23 54.5t55 22.5t55 -22.5t23 -54.5t-23 -55t-55 -23t-55 23t-23 55zM53 1434h123l488 -674l491 674h117l-559 -768v-666h-103v664z"/>
<glyph glyph-name="circumflex" horiz-adv-x="1081" unicode="ˆ" d="M266 1180l223 268h107l221 -268h-108l-168 200l-166 -200h-109z"/>
<glyph glyph-name="tilde" horiz-adv-x="1062" unicode="˜" d="M225 1225q5 93 47.5 147.5t112.5 54.5q37 0 80 -19.5t75.5 -42.5t69.5 -42.5t64 -19.5q42 0 60.5 30.5t23.5 83.5h78q-3 -93 -44.5 -149t-111.5 -56q-37 0 -80.5 20t-75.5 43.5t-70.5 43.5t-66.5 20q-72 0 -84 -114h-78z"/>
<glyph glyph-name="uni2002" horiz-adv-x="945" unicode=" "/>
<glyph glyph-name="uni2003" horiz-adv-x="1890" unicode=" "/>
<glyph glyph-name="uni2009" horiz-adv-x="378" unicode=" "/>
<glyph glyph-name="endash" horiz-adv-x="1472" unicode="–" d="M211 506v92h1051v-92h-1051z"/>
<glyph glyph-name="emdash" horiz-adv-x="1851" unicode="—" d="M211 506v92h1431v-92h-1431z"/>
<glyph glyph-name="quoteleft" horiz-adv-x="372" unicode="‘" d="M41 940l192 494h86l-155 -494h-123z"/>
<glyph glyph-name="quotesinglbase" horiz-adv-x="458" unicode="‚" d="M45 -311l156 493h123l-193 -493h-86z"/>
<glyph glyph-name="quotedblleft" horiz-adv-x="641" unicode="“" d="M307 940l193 494h86l-156 -494h-123zM41 940l192 494h86l-155 -494h-123z"/>
<glyph glyph-name="quotedblright" horiz-adv-x="641" unicode="”" d="M317 940l156 494h123l-193 -494h-86zM51 940l156 494h123l-193 -494h-86z"/>
<glyph glyph-name="ellipsis" horiz-adv-x="1302" unicode="…" d="M991 76q0 34 24 57t58 23t58 -23t24 -57q0 -35 -24 -58.5t-58 -23.5t-58 23.5t-24 58.5zM569 76q0 34 23.5 57t58.5 23q34 0 57 -23t23 -57q0 -35 -23 -58.5t-57 -23.5q-35 0 -58.5 23.5t-23.5 58.5zM147 76q0 34 24 57t58 23t58 -23t24 -57q0 -35 -24 -58.5t-58 -23.5 t-58 23.5t-24 58.5z"/>
<glyph glyph-name="guilsinglleft" horiz-adv-x="641" unicode="‹" d="M104 463v55l320 375h117l-342 -406l342 -401h-117z"/>
<glyph glyph-name="guilsinglright" horiz-adv-x="643" unicode="›" d="M102 86l342 401l-342 406h117l320 -375v-55l-320 -377h-117z"/>
<glyph glyph-name="Euro" horiz-adv-x="1415" unicode="€" d="M94 537v92h176q-2 33 -2 98q0 47 8 129h-182v94h199q57 232 221.5 370t403.5 138q213 0 362 -106v-107q-160 115 -356 115q-195 0 -334.5 -109.5t-190.5 -300.5h559v-94h-577q-10 -68 -10 -129q0 -44 4 -98h583v-92h-569q39 -214 181 -339.5t354 -125.5q112 0 213 37 t176 108v-113q-160 -129 -395 -129q-250 0 -422 153t-213 409h-189z"/>
<glyph glyph-name="trademark" horiz-adv-x="1406" unicode="™" d="M676 803v631h74l231 -291l225 291h74v-631h-80v506l-201 -250h-41l-202 250v-506h-80zM51 1364v70h506v-70h-219v-561h-78v561h-209z"/>
</font>
</defs>
</svg>
